<svg
  width="33"
  height="23"
  viewBox="0 0 33 23"
  fill="none"
  xmlns="http://www.w3.org/2000/svg"
>
<path
    d="M8.07889 0C3.89319 0 0.5 3.28931 0.5 7.34688C0.5 11.4045 3.89319 14.6938 8.07889 14.6938H16.4999C16.965 14.6938 17.342 15.0592 17.342 15.5101C17.342 15.9609 16.965 16.3264 16.4999 16.3264H1.08947C0.763915 16.3264 0.5 16.5822 0.5 16.8978V22.2855C0.5 22.6011 0.763915 22.857 1.08947 22.857H16.4999C20.6856 22.857 24.0788 19.5676 24.0788 15.5101C24.0788 11.4525 20.6856 8.1632 16.4999 8.1632H8.07889C7.61382 8.1632 7.23679 7.79772 7.23679 7.34688C7.23679 6.89604 7.61382 6.53056 8.07889 6.53056H22.3588C22.3708 6.53068 22.3828 6.53074 22.3948 6.53074H24.9211C25.3862 6.53074 25.7632 6.89622 25.7632 7.34706V22.2857C25.7632 22.6013 26.0271 22.8571 26.3527 22.8571H31.9105C32.2361 22.8571 32.5 22.6013 32.5 22.2857V7.34706C32.5 3.28949 29.1068 0.00018309 24.9211 0.00018309H24.0788V0H8.07889Z"
    fill="#EEEEEC"
  />
</svg>
